<mxfile host="app.diagrams.net" modified="2022-06-30T05:52:49.604Z" agent="5.0 (Windows NT 10.0; Win64; x64) AppleWebKit/537.36 (KHTML, like Gecko) Chrome/103.0.0.0 Safari/537.36" etag="Vdr3c_2QwDJGgkiOg_z4" version="20.0.3" type="github">
  <diagram id="j2oIDF2ZuD07oShksiCt" name="第 1 页">
    <mxGraphModel dx="942" dy="625" grid="0" gridSize="10" guides="1" tooltips="1" connect="1" arrows="1" fold="1" page="0" pageScale="1" pageWidth="850" pageHeight="1100" background="none" math="0" shadow="0">
      <root>
        <mxCell id="0" />
        <mxCell id="1" parent="0" />
        <mxCell id="xny-iju86W6RO8Nu35me-12" value="" style="edgeStyle=orthogonalEdgeStyle;rounded=0;orthogonalLoop=1;jettySize=auto;html=1;fontFamily=Comic Sans MS;fontSize=12;labelBackgroundColor=#F4F1DE;strokeColor=#E07A5F;fontColor=#393C56;" edge="1" parent="1" source="xny-iju86W6RO8Nu35me-2" target="xny-iju86W6RO8Nu35me-5">
          <mxGeometry relative="1" as="geometry" />
        </mxCell>
        <mxCell id="xny-iju86W6RO8Nu35me-2" value="&lt;font&gt;随机生成十组地理位置、日期和杆长&lt;/font&gt;" style="rounded=1;whiteSpace=wrap;html=1;fontFamily=Comic Sans MS;fillColor=#F2CC8F;strokeColor=#E07A5F;fontColor=#393C56;" vertex="1" parent="1">
          <mxGeometry x="282.5" y="240" width="115" height="50" as="geometry" />
        </mxCell>
        <mxCell id="xny-iju86W6RO8Nu35me-16" value="" style="edgeStyle=orthogonalEdgeStyle;rounded=0;orthogonalLoop=1;jettySize=auto;html=1;fontFamily=Comic Sans MS;fontSize=12;entryX=0.5;entryY=1;entryDx=0;entryDy=0;labelBackgroundColor=#F4F1DE;strokeColor=#E07A5F;fontColor=#393C56;" edge="1" parent="1" source="xny-iju86W6RO8Nu35me-5" target="xny-iju86W6RO8Nu35me-14">
          <mxGeometry relative="1" as="geometry">
            <mxPoint x="540" y="360" as="targetPoint" />
          </mxGeometry>
        </mxCell>
        <mxCell id="xny-iju86W6RO8Nu35me-20" value="" style="edgeStyle=orthogonalEdgeStyle;rounded=0;orthogonalLoop=1;jettySize=auto;html=1;fontFamily=Comic Sans MS;fontSize=12;labelBackgroundColor=#F4F1DE;strokeColor=#E07A5F;fontColor=#393C56;" edge="1" parent="1" source="xny-iju86W6RO8Nu35me-5" target="xny-iju86W6RO8Nu35me-19">
          <mxGeometry relative="1" as="geometry" />
        </mxCell>
        <mxCell id="xny-iju86W6RO8Nu35me-5" value="判断是否满足&lt;br&gt;基本精度要求" style="rhombus;whiteSpace=wrap;html=1;fontFamily=Comic Sans MS;fontSize=12;fillColor=#F2CC8F;strokeColor=#E07A5F;fontColor=#393C56;" vertex="1" parent="1">
          <mxGeometry x="260" y="320" width="160" height="80" as="geometry" />
        </mxCell>
        <mxCell id="xny-iju86W6RO8Nu35me-17" value="" style="edgeStyle=orthogonalEdgeStyle;rounded=0;orthogonalLoop=1;jettySize=auto;html=1;fontFamily=Comic Sans MS;fontSize=12;labelBackgroundColor=#F4F1DE;strokeColor=#E07A5F;fontColor=#393C56;" edge="1" parent="1" source="xny-iju86W6RO8Nu35me-14" target="xny-iju86W6RO8Nu35me-2">
          <mxGeometry relative="1" as="geometry" />
        </mxCell>
        <mxCell id="xny-iju86W6RO8Nu35me-14" value="保留优质基因" style="rounded=1;whiteSpace=wrap;html=1;fontFamily=Comic Sans MS;fillColor=#F2CC8F;strokeColor=#E07A5F;fontColor=#393C56;" vertex="1" parent="1">
          <mxGeometry x="90" y="240" width="115" height="50" as="geometry" />
        </mxCell>
        <mxCell id="xny-iju86W6RO8Nu35me-18" value="否" style="text;html=1;align=center;verticalAlign=middle;resizable=0;points=[];autosize=1;strokeColor=none;fillColor=none;fontSize=12;fontFamily=Comic Sans MS;fontColor=#393C56;" vertex="1" parent="1">
          <mxGeometry x="220" y="330" width="40" height="30" as="geometry" />
        </mxCell>
        <mxCell id="xny-iju86W6RO8Nu35me-25" value="" style="edgeStyle=orthogonalEdgeStyle;rounded=0;orthogonalLoop=1;jettySize=auto;html=1;fontFamily=Comic Sans MS;fontSize=12;entryX=0;entryY=0.5;entryDx=0;entryDy=0;labelBackgroundColor=#F4F1DE;strokeColor=#E07A5F;fontColor=#393C56;" edge="1" parent="1" source="xny-iju86W6RO8Nu35me-19" target="xny-iju86W6RO8Nu35me-21">
          <mxGeometry relative="1" as="geometry">
            <mxPoint x="460" y="340" as="targetPoint" />
          </mxGeometry>
        </mxCell>
        <mxCell id="xny-iju86W6RO8Nu35me-19" value="将优质基因组合的信息均转化为基因序列" style="rounded=1;whiteSpace=wrap;html=1;fontFamily=Comic Sans MS;fillColor=#F2CC8F;strokeColor=#E07A5F;fontColor=#393C56;" vertex="1" parent="1">
          <mxGeometry x="282.5" y="430" width="115" height="50" as="geometry" />
        </mxCell>
        <mxCell id="xny-iju86W6RO8Nu35me-23" value="" style="edgeStyle=orthogonalEdgeStyle;rounded=0;orthogonalLoop=1;jettySize=auto;html=1;fontFamily=Comic Sans MS;fontSize=12;labelBackgroundColor=#F4F1DE;strokeColor=#E07A5F;fontColor=#393C56;" edge="1" parent="1" source="xny-iju86W6RO8Nu35me-21" target="xny-iju86W6RO8Nu35me-22">
          <mxGeometry relative="1" as="geometry" />
        </mxCell>
        <mxCell id="xny-iju86W6RO8Nu35me-21" value="交叉父代基因组合生成一定数量的子代" style="rounded=1;whiteSpace=wrap;html=1;fontFamily=Comic Sans MS;fillColor=#F2CC8F;strokeColor=#E07A5F;fontColor=#393C56;" vertex="1" parent="1">
          <mxGeometry x="510" y="160" width="115" height="50" as="geometry" />
        </mxCell>
        <mxCell id="xny-iju86W6RO8Nu35me-27" value="" style="edgeStyle=orthogonalEdgeStyle;rounded=0;orthogonalLoop=1;jettySize=auto;html=1;fontFamily=Comic Sans MS;fontSize=12;labelBackgroundColor=#F4F1DE;strokeColor=#E07A5F;fontColor=#393C56;" edge="1" parent="1" source="xny-iju86W6RO8Nu35me-22" target="xny-iju86W6RO8Nu35me-26">
          <mxGeometry relative="1" as="geometry" />
        </mxCell>
        <mxCell id="xny-iju86W6RO8Nu35me-22" value="以一定的概率对子代基因序列进行变异" style="rounded=1;whiteSpace=wrap;html=1;fontFamily=Comic Sans MS;fillColor=#F2CC8F;strokeColor=#E07A5F;fontColor=#393C56;" vertex="1" parent="1">
          <mxGeometry x="510" y="240" width="115" height="50" as="geometry" />
        </mxCell>
        <mxCell id="xny-iju86W6RO8Nu35me-29" value="" style="edgeStyle=orthogonalEdgeStyle;rounded=0;orthogonalLoop=1;jettySize=auto;html=1;fontFamily=Comic Sans MS;fontSize=12;labelBackgroundColor=#F4F1DE;strokeColor=#E07A5F;fontColor=#393C56;" edge="1" parent="1" source="xny-iju86W6RO8Nu35me-26" target="xny-iju86W6RO8Nu35me-28">
          <mxGeometry relative="1" as="geometry" />
        </mxCell>
        <mxCell id="xny-iju86W6RO8Nu35me-26" value="提取当前各存活基因序列的各项信息" style="rounded=1;whiteSpace=wrap;html=1;fontFamily=Comic Sans MS;fillColor=#F2CC8F;strokeColor=#E07A5F;fontColor=#393C56;" vertex="1" parent="1">
          <mxGeometry x="510" y="335" width="115" height="50" as="geometry" />
        </mxCell>
        <mxCell id="xny-iju86W6RO8Nu35me-38" value="" style="edgeStyle=orthogonalEdgeStyle;rounded=0;orthogonalLoop=1;jettySize=auto;html=1;fontFamily=Comic Sans MS;fontSize=12;entryX=0;entryY=0.5;entryDx=0;entryDy=0;labelBackgroundColor=#F4F1DE;strokeColor=#E07A5F;fontColor=#393C56;" edge="1" parent="1" source="xny-iju86W6RO8Nu35me-28" target="xny-iju86W6RO8Nu35me-30">
          <mxGeometry relative="1" as="geometry">
            <mxPoint x="722.5" y="455" as="targetPoint" />
          </mxGeometry>
        </mxCell>
        <mxCell id="xny-iju86W6RO8Nu35me-28" value="计算各基因序列的适应度并对其排序" style="rounded=1;whiteSpace=wrap;html=1;fontFamily=Comic Sans MS;fillColor=#F2CC8F;strokeColor=#E07A5F;fontColor=#393C56;" vertex="1" parent="1">
          <mxGeometry x="510" y="430" width="115" height="50" as="geometry" />
        </mxCell>
        <mxCell id="xny-iju86W6RO8Nu35me-33" value="" style="edgeStyle=orthogonalEdgeStyle;rounded=0;orthogonalLoop=1;jettySize=auto;html=1;fontFamily=Comic Sans MS;fontSize=12;labelBackgroundColor=#F4F1DE;strokeColor=#E07A5F;fontColor=#393C56;" edge="1" parent="1" source="xny-iju86W6RO8Nu35me-30" target="xny-iju86W6RO8Nu35me-32">
          <mxGeometry relative="1" as="geometry" />
        </mxCell>
        <mxCell id="xny-iju86W6RO8Nu35me-30" value="淘汰低适应度的部分基因" style="rounded=1;whiteSpace=wrap;html=1;fontFamily=Comic Sans MS;fillColor=#F2CC8F;strokeColor=#E07A5F;fontColor=#393C56;" vertex="1" parent="1">
          <mxGeometry x="735" y="160" width="115" height="50" as="geometry" />
        </mxCell>
        <mxCell id="xny-iju86W6RO8Nu35me-39" value="" style="edgeStyle=orthogonalEdgeStyle;rounded=0;orthogonalLoop=1;jettySize=auto;html=1;fontFamily=Comic Sans MS;fontSize=12;entryX=1;entryY=0.5;entryDx=0;entryDy=0;labelBackgroundColor=#F4F1DE;strokeColor=#E07A5F;fontColor=#393C56;" edge="1" parent="1" source="xny-iju86W6RO8Nu35me-32" target="xny-iju86W6RO8Nu35me-21">
          <mxGeometry relative="1" as="geometry">
            <Array as="points">
              <mxPoint x="660" y="280" />
              <mxPoint x="660" y="185" />
            </Array>
          </mxGeometry>
        </mxCell>
        <mxCell id="xny-iju86W6RO8Nu35me-42" value="" style="edgeStyle=orthogonalEdgeStyle;rounded=0;orthogonalLoop=1;jettySize=auto;html=1;fontFamily=Comic Sans MS;fontSize=12;labelBackgroundColor=#F4F1DE;strokeColor=#E07A5F;fontColor=#393C56;" edge="1" parent="1" source="xny-iju86W6RO8Nu35me-32" target="xny-iju86W6RO8Nu35me-41">
          <mxGeometry relative="1" as="geometry" />
        </mxCell>
        <mxCell id="xny-iju86W6RO8Nu35me-32" value="判断当前基因组是否&lt;br&gt;满足最终精度要求" style="rhombus;whiteSpace=wrap;html=1;fontFamily=Comic Sans MS;fontSize=12;fillColor=#F2CC8F;strokeColor=#E07A5F;fontColor=#393C56;" vertex="1" parent="1">
          <mxGeometry x="722.5" y="240" width="140" height="80" as="geometry" />
        </mxCell>
        <mxCell id="xny-iju86W6RO8Nu35me-34" value="是" style="text;html=1;align=center;verticalAlign=middle;resizable=0;points=[];autosize=1;strokeColor=none;fillColor=none;fontSize=12;fontFamily=Comic Sans MS;fontColor=#393C56;" vertex="1" parent="1">
          <mxGeometry x="340" y="395" width="40" height="30" as="geometry" />
        </mxCell>
        <mxCell id="xny-iju86W6RO8Nu35me-40" value="否" style="text;html=1;align=center;verticalAlign=middle;resizable=0;points=[];autosize=1;strokeColor=none;fillColor=none;fontSize=12;fontFamily=Comic Sans MS;fontColor=#393C56;" vertex="1" parent="1">
          <mxGeometry x="682.5" y="250" width="40" height="30" as="geometry" />
        </mxCell>
        <mxCell id="xny-iju86W6RO8Nu35me-44" value="" style="edgeStyle=orthogonalEdgeStyle;rounded=0;orthogonalLoop=1;jettySize=auto;html=1;fontFamily=Comic Sans MS;fontSize=12;labelBackgroundColor=#F4F1DE;strokeColor=#E07A5F;fontColor=#393C56;" edge="1" parent="1" source="xny-iju86W6RO8Nu35me-41" target="xny-iju86W6RO8Nu35me-43">
          <mxGeometry relative="1" as="geometry" />
        </mxCell>
        <mxCell id="xny-iju86W6RO8Nu35me-41" value="提取最终进化的优质基因信息" style="rounded=1;whiteSpace=wrap;html=1;fontFamily=Comic Sans MS;fillColor=#F2CC8F;strokeColor=#E07A5F;fontColor=#393C56;" vertex="1" parent="1">
          <mxGeometry x="735" y="350" width="115" height="50" as="geometry" />
        </mxCell>
        <mxCell id="xny-iju86W6RO8Nu35me-43" value="结束" style="rounded=1;whiteSpace=wrap;html=1;fontFamily=Comic Sans MS;fillColor=#F2CC8F;strokeColor=#E07A5F;fontColor=#393C56;" vertex="1" parent="1">
          <mxGeometry x="745" y="437.5" width="95" height="35" as="geometry" />
        </mxCell>
        <mxCell id="xny-iju86W6RO8Nu35me-47" style="edgeStyle=orthogonalEdgeStyle;rounded=0;orthogonalLoop=1;jettySize=auto;html=1;entryX=0.5;entryY=0;entryDx=0;entryDy=0;fontFamily=Comic Sans MS;fontSize=12;labelBackgroundColor=#F4F1DE;strokeColor=#E07A5F;fontColor=#393C56;" edge="1" parent="1" source="xny-iju86W6RO8Nu35me-45" target="xny-iju86W6RO8Nu35me-2">
          <mxGeometry relative="1" as="geometry" />
        </mxCell>
        <mxCell id="xny-iju86W6RO8Nu35me-45" value="开始" style="rounded=1;whiteSpace=wrap;html=1;fontFamily=Comic Sans MS;fillColor=#F2CC8F;strokeColor=#E07A5F;fontColor=#393C56;" vertex="1" parent="1">
          <mxGeometry x="292.5" y="167.5" width="95" height="35" as="geometry" />
        </mxCell>
        <mxCell id="xny-iju86W6RO8Nu35me-48" value="是" style="text;html=1;align=center;verticalAlign=middle;resizable=0;points=[];autosize=1;strokeColor=none;fillColor=none;fontColor=#393C56;" vertex="1" parent="1">
          <mxGeometry x="801" y="320" width="30" height="26" as="geometry" />
        </mxCell>
      </root>
    </mxGraphModel>
  </diagram>
</mxfile>
